<?xml version="1.0" encoding="UTF-8"?>
<svg version="1.1" xmlns="http://www.w3.org/2000/svg" width="1200" height="1200">
<path d="M0 0 C0.8461084 0.42104004 1.6922168 0.84208008 2.56396484 1.27587891 C21.91466706 10.98446521 40.42958685 22.35911085 58 35 C58.74701172 35.53592773 59.49402344 36.07185547 60.26367188 36.62402344 C71.49019401 44.70951781 82.38505281 53.12809764 93 62 C93.87833496 62.72968994 93.87833496 62.72968994 94.77441406 63.47412109 C111.12651981 77.09473425 127.43678696 91.7251576 141.2421875 107.96484375 C143.3526414 110.40828038 145.55292879 112.75918821 147.75 115.125 C152.98522567 120.87271011 157.75734415 126.91135343 162.49755859 133.06933594 C164.03571744 135.04589755 165.602011 136.99701634 167.17578125 138.9453125 C225.41349213 211.54440711 260.26069052 302.80017627 270 395 C270.10441406 395.97050293 270.20882812 396.94100586 270.31640625 397.94091797 C280.15136074 494.31413496 260.04184165 590.66339196 217 677 C216.36843994 678.2691626 216.36843994 678.2691626 215.72412109 679.56396484 C206.01553479 698.91466706 194.64088915 717.42958685 182 735 C181.46407227 735.74701172 180.92814453 736.49402344 180.37597656 737.26367188 C172.29048219 748.49019401 163.87190236 759.38505281 155 770 C154.27031006 770.87833496 154.27031006 770.87833496 153.52587891 771.77441406 C139.90526575 788.12651981 125.2748424 804.43678696 109.03515625 818.2421875 C106.59171962 820.3526414 104.24081179 822.55292879 101.875 824.75 C96.12728989 829.98522567 90.08864657 834.75734415 83.93066406 839.49755859 C81.95410245 841.03571744 80.00298366 842.602011 78.0546875 844.17578125 C5.45559289 902.41349213 -85.80017627 937.26069052 -178 947 C-178.97050293 947.10441406 -179.94100586 947.20882812 -180.94091797 947.31640625 C-277.31413496 957.15136074 -373.66339196 937.04184165 -460 894 C-460.8461084 893.57895996 -461.6922168 893.15791992 -462.56396484 892.72412109 C-481.91466706 883.01553479 -500.42958685 871.64088915 -518 859 C-518.74701172 858.46407227 -519.49402344 857.92814453 -520.26367188 857.37597656 C-531.49019401 849.29048219 -542.38505281 840.87190236 -553 832 C-553.58555664 831.51354004 -554.17111328 831.02708008 -554.77441406 830.52587891 C-571.12651981 816.90526575 -587.43678696 802.2748424 -601.2421875 786.03515625 C-603.3526414 783.59171962 -605.55292879 781.24081179 -607.75 778.875 C-612.98522567 773.12728989 -617.75734415 767.08864657 -622.49755859 760.93066406 C-624.03571744 758.95410245 -625.602011 757.00298366 -627.17578125 755.0546875 C-685.41349213 682.45559289 -720.26069052 591.19982373 -730 499 C-730.10441406 498.02949707 -730.20882812 497.05899414 -730.31640625 496.05908203 C-740.15136074 399.68586504 -720.04184165 303.33660804 -677 217 C-676.57895996 216.1538916 -676.15791992 215.3077832 -675.72412109 214.43603516 C-666.01553479 195.08533294 -654.64088915 176.57041315 -642 159 C-641.46407227 158.25298828 -640.92814453 157.50597656 -640.37597656 156.73632812 C-632.29048219 145.50980599 -623.87190236 134.61494719 -615 124 C-614.51354004 123.41444336 -614.02708008 122.82888672 -613.52587891 122.22558594 C-599.90526575 105.87348019 -585.2748424 89.56321304 -569.03515625 75.7578125 C-566.59171962 73.6473586 -564.24081179 71.44707121 -561.875 69.25 C-556.12728989 64.01477433 -550.08864657 59.24265585 -543.93066406 54.50244141 C-541.95410245 52.96428256 -540.00298366 51.397989 -538.0546875 49.82421875 C-465.45559289 -8.41349213 -374.19982373 -43.26069052 -282 -53 C-281.02949707 -53.10441406 -280.05899414 -53.20882812 -279.05908203 -53.31640625 C-182.68586504 -63.15136074 -86.33660804 -43.04184165 0 0 Z M-452 10 C-452.97324219 10.48194824 -453.94648438 10.96389648 -454.94921875 11.46044922 C-502.04393336 34.92041755 -543.72108695 67.73106354 -580.875 104.75 C-582.21316772 106.08115845 -582.21316772 106.08115845 -583.57836914 107.43920898 C-588.59318506 112.46626191 -593.39301913 117.59836206 -598 123 C-598.9492374 124.08315735 -599.89970486 125.16523829 -600.8515625 126.24609375 C-608.65279296 135.18961245 -615.91492332 144.48207031 -623 154 C-623.53238281 154.71140137 -624.06476563 155.42280273 -624.61328125 156.15576172 C-672.84610196 220.83292306 -703.61239952 297.21920726 -720.13037109 444.29296875 C-720.12500505 446.99745281 -720.13035872 449.70177088 -720.13671875 452.40625 C-720.14111757 460.81985678 -720.03999774 469.22097998 -719.6171875 477.625 C-719.58682404 478.32979492 -719.55646057 479.03458984 -719.525177 479.76074219 C-719.3157901 483.32424719 -719.03093573 484.95359641 -717 488 C-708.23136672 484.8512635 -700.20931257 481.12261648 -692.125 476.5 C-664.10614185 460.68255958 -632.3601074 457.9002253 -601.296875 465.9609375 C-589.47363351 469.50790995 -578.89610087 475.58907469 -568.16796875 481.58203125 C-546.72625219 493.08823349 -517.18440458 494.91802458 -493.9609375 488.32421875 C-484.41556582 485.26396036 -475.60263409 481.04680263 -467 475.9375 C-442.24481148 461.40544394 -409.78007845 457.45706378 -381.97998047 464.4609375 C-368.05449505 468.25224105 -355.84055132 474.47272371 -343.30859375 481.51171875 C-331.34791636 487.92717515 -317.63282662 491.21131504 -304.125 491.0625 C-302.949375 491.05573242 -302.949375 491.05573242 -301.75 491.04882812 C-299.83329986 491.03714093 -297.91663952 491.01920908 -296 491 C-300.54441783 476.45157842 -300.54441783 476.45157842 -309 464 C-314.68982106 461.09509557 -321.17042593 461.32524709 -327.42871094 461.15771484 C-331.24784254 460.92346123 -334.69095481 460.00351142 -338.3125 458.8125 C-338.95348633 458.60278564 -339.59447266 458.39307129 -340.25488281 458.17700195 C-347.12459363 455.78863598 -353.50847055 452.42926583 -359.93945312 449.06591797 C-376.50128402 440.09384811 -376.50128402 440.09384811 -394.5546875 435.84765625 C-397.23463199 435.66267692 -398.7057303 435.42774514 -401 434 C-404.15625007 429.29386173 -406.08843997 424.30974718 -408 419 C-408.43570312 417.88496094 -408.87140625 416.76992188 -409.3203125 415.62109375 C-415.97779422 395.53225906 -413.35165352 372.49436804 -404.25 353.75 C-394.30160667 334.446837 -379.08066525 320.38289941 -358.44140625 313.03125 C-334.56272752 305.8757776 -311.61860875 308.47019643 -289.4375 319.6875 C-269.3128821 331.15794548 -257.91236135 349.35023107 -251.53100586 371.05126953 C-245.94093095 391.56620193 -250.69827916 413.11947709 -260.93554688 431.19726562 C-265.55788505 439.02555579 -270.82639795 445.40993244 -278 451 C-273.72297501 458.06097944 -269.07418076 464.80508155 -264.25 471.5 C-263.68321533 472.28938965 -263.11643066 473.0787793 -262.5324707 473.89208984 C-261.99066162 474.6392627 -261.44885254 475.38643555 -260.890625 476.15625 C-260.40625977 476.82462891 -259.92189453 477.49300781 -259.42285156 478.18164062 C-258.05380704 479.93123631 -256.60519165 481.46728554 -255 483 C-254.351521 482.66266846 -253.70304199 482.32533691 -253.03491211 481.9777832 C-228.30683364 469.18135836 -228.30683364 469.18135836 -216 466 C-214.86304688 465.68546875 -213.72609375 465.3709375 -212.5546875 465.046875 C-194.31395196 460.78683061 -173.06571777 460.9987561 -155 466 C-153.82824219 466.30550781 -152.65648437 466.61101562 -151.44921875 466.92578125 C-142.6265284 469.53183909 -134.91334753 473.55113075 -126.84692383 477.90234375 C-100.43901134 492.03135681 -72.07876867 495.74215369 -43.1640625 487.96875 C-34.23177215 485.19730561 -26.15044302 481.25949434 -17.87402344 476.96679688 C11.91152423 461.60062064 45.52363978 457.94751496 77.7109375 468.1796875 C84.65449771 470.77011062 91.14902612 474.07596512 97.73413086 477.45361328 C108.32910583 482.88080994 118.35734909 487.43033542 130 490 C131.08796875 490.24105469 132.1759375 490.48210938 133.296875 490.73046875 C160.23903704 495.72348137 186.07717001 489.1427337 209.43481445 475.63818359 C225.33585091 466.54039309 242.08002199 463.72647518 260 461 C260.95078943 378.06190634 243.97496692 299.25894996 207 225 C206.51805176 224.02675781 206.03610352 223.05351562 205.53955078 222.05078125 C182.07958245 174.95606664 149.26893646 133.27891305 112.25 96.125 C111.36256104 95.23288818 110.47512207 94.34077637 109.56079102 93.42163086 C104.53373809 88.40681494 99.40163794 83.60698087 94 79 C92.91684265 78.0507626 91.83476171 77.10029514 90.75390625 76.1484375 C81.81038755 68.34720704 72.51792969 61.08507668 63 54 C61.93289795 53.20142578 61.93289795 53.20142578 60.84423828 52.38671875 C-3.83292306 4.15389804 -80.21920726 -26.61239952 -229.3125 -43.1875 C-230.68770813 -43.18659363 -230.68770813 -43.18659363 -232.09069824 -43.18566895 C-309.05739398 -43.04880662 -383.3137596 -24.20020709 -452 10 Z M-365.41015625 358.03515625 C-375.00971781 369.89898786 -378.43485089 382.98583866 -377 398 C-375.33056416 406.99914825 -371.83358182 413.99970181 -366 421 C-365.42636719 421.70898438 -364.85273438 422.41796875 -364.26171875 423.1484375 C-356.34821692 431.99393633 -344.55042272 437.0519801 -332.875 438.2109375 C-320.47183938 438.78679853 -309.80252313 433.66839822 -299.8125 426.8125 C-292.93740942 419.93740942 -287.92879175 412.28278063 -285 403 C-284.80921875 402.41089844 -284.6184375 401.82179688 -284.421875 401.21484375 C-282.01956614 388.60272221 -283.99475219 375.92482993 -290.9375 365.125 C-291.94253039 363.7384072 -292.96205663 362.36213041 -294 361 C-294.7425 359.96875 -295.485 358.9375 -296.25 357.875 C-304.73180236 349.00766117 -316.12007038 343.04624252 -328.48193359 342.70751953 C-342.65749587 342.57112008 -355.56460427 347.44829212 -365.41015625 358.03515625 Z M-691.99414062 488.66479492 C-699.73424279 493.1282665 -708.23579319 497.09096485 -717 499 C-716.48143798 508.102128 -715.53767346 517.01282114 -714 526 C-708.55045115 524.12671758 -703.57069472 521.81162894 -698.63964844 518.85351562 C-691.74384478 514.73466142 -684.87686408 511.60524408 -677.25 509.0625 C-676.41170654 508.78043701 -675.57341309 508.49837402 -674.7097168 508.20776367 C-663.30444754 504.57856189 -652.17886282 503.63366734 -640.25 503.6875 C-639.58914398 503.68998749 -638.92828796 503.69247498 -638.24740601 503.69503784 C-616.34706089 503.82241352 -598.01187666 509.2456959 -579.0625 520.0625 C-556.26239474 533.07733372 -528.08341595 537.39211327 -502.375 531.0234375 C-491.93553915 527.85776766 -482.77537091 524.00316689 -473.3125 518.5625 C-466.40352738 514.60638868 -459.56228968 511.4441515 -452 508.9375 C-450.76503784 508.52576538 -450.76503784 508.52576538 -449.50512695 508.10571289 C-438.17722327 504.5539254 -427.08103694 503.63410881 -415.25 503.6875 C-414.58914398 503.68998749 -413.92828796 503.69247498 -413.24740601 503.69503784 C-391.34706089 503.82241352 -373.01187666 509.2456959 -354.0625 520.0625 C-331.26056123 533.07838032 -303.07272068 537.39593809 -277.36328125 531.01953125 C-266.43754677 527.70754902 -256.794027 523.44002888 -246.75 518 C-236.46635091 512.45905778 -226.36408583 508.64968467 -215 506 C-213.37191406 505.60554687 -213.37191406 505.60554687 -211.7109375 505.203125 C-183.87533007 499.76820429 -155.66935524 505.83055496 -131.18286133 519.24072266 C-106.57890766 532.54845816 -77.29691544 537.88033984 -50 530 C-39.94769198 526.96901975 -30.63909544 522.97680609 -21.4375 517.9375 C6.19227084 502.83886149 38.07826647 499.78787196 68.375 508.18359375 C77.45195238 510.87888581 85.52965741 514.70203639 93.81713867 519.24072266 C120.36207137 533.59829088 149.75659563 537.20723415 178.87890625 528.921875 C187.96961565 526.11767102 196.13286138 521.92519792 204.5 517.4375 C221.82715824 508.20358312 237.54618965 505.070981 257 503 C258.24844065 492.96788765 259.35762486 483.13270429 259 473 C239.35770002 473.67268151 223.92910953 480.1781616 206.8359375 489.1875 C179.93568263 503.26730581 147.24771076 507.03965328 118 498 C107.15041324 494.41233011 97.08406909 489.63744366 87.08129883 484.15893555 C61.99173117 470.63004399 32.77781594 469.97949263 5.875 477.9375 C-0.88379257 480.29338094 -7.01698755 483.55232804 -13.3125 486.9375 C-22.97882921 492.13085392 -32.39339541 496.19214435 -43 499 C-44.82337891 499.50466797 -44.82337891 499.50466797 -46.68359375 500.01953125 C-76.76410187 506.99056964 -106.8884104 500.76525583 -133.5625 486.4375 C-160.65767287 471.88967461 -189.54480826 469.25638448 -219 477.875 C-227.29684398 480.76431627 -234.84744754 485.04801231 -242.57666016 489.18432617 C-260.39739001 498.59277767 -277.47135537 502.42945425 -297.5625 502.375 C-298.31600739 502.37445618 -299.06951477 502.37391235 -299.84585571 502.37335205 C-311.33615394 502.33520314 -322.04003709 501.66099601 -333 498 C-334.1859375 497.61070312 -335.371875 497.22140625 -336.59375 496.8203125 C-344.59238159 493.88168481 -351.93910368 489.95101785 -359.4375 485.9375 C-368.4753878 481.11091464 -377.01610903 477.37765349 -387 475 C-387.93585938 474.75894531 -388.87171875 474.51789062 -389.8359375 474.26953125 C-416.73044433 468.52844025 -443.72685526 475.19368839 -467.02490234 488.67138672 C-473.76017968 492.52641455 -480.62879035 495.56545482 -488 498 C-489.85431641 498.62068359 -489.85431641 498.62068359 -491.74609375 499.25390625 C-511.71859863 505.09825915 -538.32281967 504.58641802 -558 498 C-558.63276855 497.79101074 -559.26553711 497.58202148 -559.91748047 497.36669922 C-567.3887438 494.83326347 -574.18953392 491.43978976 -581 487.5 C-616.27819065 467.1311963 -657.07645869 468.26907253 -691.99414062 488.66479492 Z M-692.9296875 527.91650391 C-696.59187233 529.83310488 -700.29867408 531.66049059 -704 533.5 C-705.35435334 534.17670986 -706.70853813 534.85375723 -708.0625 535.53125 C-709.031875 536.0159375 -710.00125 536.500625 -711 537 C-710.72603745 547.63472799 -708.80903395 561.38193209 -704 571 C-700.41211762 569.66226183 -697.06875281 568.01944371 -693.68457031 566.23291016 C-676.58285195 557.28064145 -659.56457674 553.60033703 -640.25 553.6875 C-639.58914398 553.68998749 -638.92828796 553.69247498 -638.24740601 553.69503784 C-616.34706089 553.82241352 -598.01187666 559.2456959 -579.0625 570.0625 C-556.26239474 583.07733372 -528.08341595 587.39211327 -502.375 581.0234375 C-491.93553915 577.85776766 -482.77537091 574.00316689 -473.3125 568.5625 C-466.40352738 564.60638868 -459.56228968 561.4441515 -452 558.9375 C-450.76503784 558.52576538 -450.76503784 558.52576538 -449.50512695 558.10571289 C-438.17722327 554.5539254 -427.08103694 553.63410881 -415.25 553.6875 C-414.58914398 553.68998749 -413.92828796 553.69247498 -413.24740601 553.69503784 C-391.34706089 553.82241352 -373.01187666 559.2456959 -354.0625 570.0625 C-331.26056123 583.07838032 -303.07272068 587.39593809 -277.36328125 581.01953125 C-266.43754677 577.70754902 -256.794027 573.44002888 -246.75 568 C-236.46635091 562.45905778 -226.36408583 558.64968467 -215 556 C-213.37191406 555.60554687 -213.37191406 555.60554687 -211.7109375 555.203125 C-183.87533007 549.76820429 -155.66935524 555.83055496 -131.18286133 569.24072266 C-106.57890766 582.54845816 -77.29691544 587.88033984 -50 580 C-39.94769198 576.96901975 -30.63909544 572.97680609 -21.4375 567.9375 C6.17381039 552.84894944 38.17715279 549.7169002 68.4453125 558.21875 C77.10087575 560.8129085 84.90992172 564.31509503 92.81201172 568.67114258 C118.62613002 582.85779382 148.50876893 587.50814296 177.06738281 579.4140625 C186.06178148 576.73927116 194.04169301 573.06918097 202.12109375 568.32885742 C216.73426682 559.8207193 232.55524913 556.22487156 249 553 C249.86136287 548.41141002 250.71562172 543.82157391 251.56347656 539.23046875 C251.85256773 537.67054056 252.14355802 536.11096303 252.43652344 534.55175781 C252.85858344 532.30364228 253.27367731 530.05433204 253.6875 527.8046875 C253.81874268 527.1138205 253.94998535 526.42295349 254.08520508 525.71115112 C254.80487881 521.75566065 255.13121167 518.01835738 255 514 C236.06449653 515.29817872 221.40448415 520.49614786 204.76586914 529.52246094 C192.33196614 536.14972605 178.14633316 541.69533159 164 543 C163.31180176 543.06413086 162.62360352 543.12826172 161.91455078 543.19433594 C136.27946817 545.42254649 112.70798302 541.29846471 89.97119141 529.04980469 C63.22373407 514.80481255 34.31399172 509.71629053 4.74609375 518.1484375 C-4.37169667 521.01803422 -12.52924392 525.32144866 -20.89941406 529.88061523 C-33.07458875 536.37218689 -47.16443394 541.72399259 -61 543 C-61.68819824 543.06413086 -62.37639648 543.12826172 -63.08544922 543.19433594 C-88.72053183 545.42254649 -112.29201698 541.29846471 -135.02880859 529.04980469 C-162.88863246 514.2123954 -192.53630623 509.8539276 -223.125 518.875 C-231.36087182 521.78649198 -238.89011468 526.06960604 -246.57495117 530.18432617 C-274.50667623 544.94090841 -307.23762013 548.41123222 -337.61132812 539.23730469 C-347.81986814 535.92400661 -357.41464138 531.06194803 -366.75 525.8125 C-390.0123228 512.8616153 -418.33091541 510.39621826 -443.85498047 517.52197266 C-453.8350984 520.50129237 -462.83233675 525.16477974 -471.98388672 530.06152344 C-500.72131918 545.37587615 -533.12969232 548.19238497 -564.39477539 538.73803711 C-573.84386055 535.64250549 -582.37380926 530.87482598 -591 526 C-623.39238527 508.0486644 -660.95887897 511.01428969 -692.9296875 527.91650391 Z M-701 583 C-699.71181691 587.23023571 -698.41884688 591.45899349 -697.125 595.6875 C-696.57779297 597.48477539 -696.57779297 597.48477539 -696.01953125 599.31835938 C-695.66503906 600.47529297 -695.31054688 601.63222656 -694.9453125 602.82421875 C-694.62062988 603.88729248 -694.29594727 604.95036621 -693.96142578 606.0456543 C-693.0805198 608.75257233 -692.09192184 611.37216475 -691 614 C-690.33581055 613.76812988 -689.67162109 613.53625977 -688.98730469 613.29736328 C-685.91155156 612.22997133 -682.83089407 611.17745672 -679.75 610.125 C-678.70585938 609.76019531 -677.66171875 609.39539063 -676.5859375 609.01953125 C-664.42440271 604.89061512 -653.06702604 603.62965923 -640.25 603.6875 C-639.58914398 603.68998749 -638.92828796 603.69247498 -638.24740601 603.69503784 C-616.34706089 603.82241352 -598.01187666 609.2456959 -579.0625 620.0625 C-556.26239474 633.07733372 -528.08341595 637.39211327 -502.375 631.0234375 C-491.93553915 627.85776766 -482.77537091 624.00316689 -473.3125 618.5625 C-466.40352738 614.60638868 -459.56228968 611.4441515 -452 608.9375 C-450.76503784 608.52576538 -450.76503784 608.52576538 -449.50512695 608.10571289 C-438.17722327 604.5539254 -427.08103694 603.63410881 -415.25 603.6875 C-414.58914398 603.68998749 -413.92828796 603.69247498 -413.24740601 603.69503784 C-391.34706089 603.82241352 -373.01187666 609.2456959 -354.0625 620.0625 C-331.26056123 633.07838032 -303.07272068 637.39593809 -277.36328125 631.01953125 C-266.43754677 627.70754902 -256.794027 623.44002888 -246.75 618 C-236.46635091 612.45905778 -226.36408583 608.64968467 -215 606 C-213.37191406 605.60554687 -213.37191406 605.60554687 -211.7109375 605.203125 C-183.87533007 599.76820429 -155.66935524 605.83055496 -131.18286133 619.24072266 C-106.56374997 632.55665662 -77.31294115 637.85969579 -50 630 C-39.58979059 626.891606 -30.08053315 622.64860334 -20.5625 617.4375 C-10.71661961 612.06478271 -0.89707263 608.58468992 10 606 C11.08796875 605.73574219 12.1759375 605.47148438 13.296875 605.19921875 C29.61796764 602.02567296 47.92124624 602.84913971 64 607 C65.01344482 607.25813477 65.01344482 607.25813477 66.04736328 607.52148438 C77.60739197 610.61283617 87.90789778 615.85074345 98.51391602 621.30541992 C106.87798055 625.56231288 114.85486047 628.84945496 124 631 C124.93199219 631.23976563 125.86398437 631.47953125 126.82421875 631.7265625 C152.50853175 637.22249253 179.77783474 631.48158003 202.11010742 618.33105469 C209.23280202 614.17225467 217.44570656 609.67501653 225.71801758 608.66967773 C228.9249221 608.17785747 231.18422925 607.63304326 234 606 C236.65488191 601.56178252 237.83065837 596.7924783 239.0625 591.8125 C239.42475957 590.49556084 239.79126419 589.17978167 240.16210938 587.86523438 C241.15790574 584.25432639 242.08867698 580.63298414 243 577 C243.3400708 575.72842041 243.3400708 575.72842041 243.68701172 574.43115234 C244.56535895 571.12104902 245 568.46149212 245 565 C230.92939201 566.54563497 219.09916522 571.74517907 206.8125 578.4375 C193.73724941 585.53148063 178.9547868 591.62077065 164 593 C163.31180176 593.06413086 162.62360352 593.12826172 161.91455078 593.19433594 C136.27946817 595.42254649 112.70798302 591.29846471 89.97119141 579.04980469 C63.22373407 564.80481255 34.31399172 559.71629053 4.74609375 568.1484375 C-4.37169667 571.01803422 -12.52924392 575.32144866 -20.89941406 579.88061523 C-33.07458875 586.37218689 -47.16443394 591.72399259 -61 593 C-61.68819824 593.06413086 -62.37639648 593.12826172 -63.08544922 593.19433594 C-88.72053183 595.42254649 -112.29201698 591.29846471 -135.02880859 579.04980469 C-162.88863246 564.2123954 -192.53630623 559.8539276 -223.125 568.875 C-231.36087182 571.78649198 -238.89011468 576.06960604 -246.57495117 580.18432617 C-274.62400082 595.00289205 -306.72022748 598.01827951 -337.25 589.25390625 C-346.66069466 586.10720522 -355.42958209 582.0286225 -363.9375 576.9375 C-373.9586335 571.03259868 -385.47470944 566.79282298 -397 565 C-398.9490625 564.690625 -398.9490625 564.690625 -400.9375 564.375 C-427.03811525 561.86532546 -449.19827999 567.86956946 -471.98388672 580.06152344 C-499.82500488 594.89822481 -532.22379018 598.48142418 -562.6550293 589.23950195 C-572.17572036 586.12733106 -581.78296083 581.9603826 -590.125 576.375 C-599.47637945 570.18258766 -611.09241834 566.97249115 -622 565 C-622.71800781 564.86851562 -623.43601562 564.73703125 -624.17578125 564.6015625 C-651.26246182 560.70949578 -678.60033115 567.52699798 -701 583 Z M-686 624 C-685.42408952 628.37464201 -684.3322187 631.96255608 -682.53125 635.984375 C-682.04269531 637.08394531 -681.55414062 638.18351563 -681.05078125 639.31640625 C-680.53902344 640.44949219 -680.02726562 641.58257813 -679.5 642.75 C-678.98824219 643.89855469 -678.47648437 645.04710937 -677.94921875 646.23046875 C-675.55292734 651.65197446 -675.55292734 651.65197446 -673 657 C-672.04867187 656.7834375 -671.09734375 656.566875 -670.1171875 656.34375 C-638.17279678 649.74509247 -607.26404427 653.96431454 -579.0625 670.0625 C-556.26239474 683.07733372 -528.08341595 687.39211327 -502.375 681.0234375 C-491.93553915 677.85776766 -482.77537091 674.00316689 -473.3125 668.5625 C-466.40352738 664.60638868 -459.56228968 661.4441515 -452 658.9375 C-450.76503784 658.52576538 -450.76503784 658.52576538 -449.50512695 658.10571289 C-438.17722327 654.5539254 -427.08103694 653.63410881 -415.25 653.6875 C-414.58914398 653.68998749 -413.92828796 653.69247498 -413.24740601 653.69503784 C-391.34706089 653.82241352 -373.01187666 659.2456959 -354.0625 670.0625 C-331.26056123 683.07838032 -303.07272068 687.39593809 -277.36328125 681.01953125 C-266.43754677 677.70754902 -256.794027 673.44002888 -246.75 668 C-236.46635091 662.45905778 -226.36408583 658.64968467 -215 656 C-213.37191406 655.60554687 -213.37191406 655.60554687 -211.7109375 655.203125 C-183.87533007 649.76820429 -155.66935524 655.83055496 -131.18286133 669.24072266 C-106.56374997 682.55665662 -77.31294115 687.85969579 -50 680 C-39.58979059 676.891606 -30.08053315 672.64860334 -20.5625 667.4375 C-10.71661961 662.06478271 -0.89707263 658.58468992 10 656 C11.08796875 655.73574219 12.1759375 655.47148438 13.296875 655.19921875 C29.61796764 652.02567296 47.92124624 652.84913971 64 657 C65.01344482 657.25813477 65.01344482 657.25813477 66.04736328 657.52148438 C77.60739197 660.61283617 87.90789778 665.85074345 98.51391602 671.30541992 C106.87798055 675.56231288 114.85486047 678.84945496 124 681 C124.93199219 681.23976563 125.86398437 681.47953125 126.82421875 681.7265625 C151.85731377 687.08314489 178.48827817 681.55386436 200.75 669.625 C201.40548828 669.28645996 202.06097656 668.94791992 202.73632812 668.59912109 C211.09085703 663.87084105 214.17338734 654.91207615 217.9375 646.5 C218.3691748 645.54399902 218.80084961 644.58799805 219.24560547 643.60302734 C222.85193059 635.52556065 226.06038056 627.34087142 229 619 C224.33186683 619.64356787 220.38474458 621.53203809 216.1875 623.5625 C215.06807007 624.09387573 215.06807007 624.09387573 213.92602539 624.63598633 C210.21471686 626.40813713 206.53462502 628.22598611 202.890625 630.1328125 C173.39488319 645.52236806 140.6860215 647.70874499 109.00390625 637.765625 C102.31292835 635.50940943 96.17330757 632.39098024 89.97119141 629.04980469 C63.2376746 614.8122369 34.22084191 609.64412692 4.67578125 618.18359375 C-3.99060624 620.93442729 -11.80188451 624.89813644 -19.76464844 629.24072266 C-48.88574239 644.90353326 -81.75431663 647.84318447 -113.3659668 638.59106445 C-121.02934725 636.18598794 -127.97593208 632.84929795 -135.02880859 629.04980469 C-162.88863246 614.2123954 -192.53630623 609.8539276 -223.125 618.875 C-231.36087182 621.78649198 -238.89011468 626.06960604 -246.57495117 630.18432617 C-274.62400082 645.00289205 -306.72022748 648.01827951 -337.25 639.25390625 C-346.66069466 636.10720522 -355.42958209 632.0286225 -363.9375 626.9375 C-373.9586335 621.03259868 -385.47470944 616.79282298 -397 615 C-398.9490625 614.690625 -398.9490625 614.690625 -400.9375 614.375 C-427.03811525 611.86532546 -449.19827999 617.86956946 -471.98388672 630.06152344 C-499.82058839 644.89587123 -532.23350318 648.49012862 -562.65942383 639.23730469 C-572.57896179 635.99195963 -582.22619363 631.5312102 -591 625.875 C-599.98733283 620.23286653 -611.54057293 616.62702199 -622 615 C-623.299375 614.79375 -624.59875 614.5875 -625.9375 614.375 C-646.9340539 612.35610059 -666.73113427 615.47197297 -686 624 Z M-667 667 C-664.88626779 674.25208675 -661.1509559 680.66834398 -657.53125 687.25390625 C-655.99329636 690.05478207 -654.7476125 692.65550643 -653.59375 695.65234375 C-652.0805422 699.16317038 -651.17254635 700.82003394 -648 703 C-641.39529046 704.40723743 -634.53425361 704.02162593 -627.81884766 703.96777344 C-609.75130189 704.17433121 -592.76303271 712.19846812 -577.4309082 721.00170898 C-571.91620927 724.10814813 -566.45064751 726.58325483 -560.4375 728.5625 C-559.74841553 728.78945557 -559.05933105 729.01641113 -558.34936523 729.25024414 C-548.21985871 732.3706508 -538.32355075 733.36495932 -527.75 733.3125 C-526.55850342 733.30686035 -525.36700684 733.3012207 -524.1394043 733.29541016 C-505.39058552 733.03719366 -489.44494649 727.83783181 -473.3125 718.5625 C-466.40352738 714.60638868 -459.56228968 711.4441515 -452 708.9375 C-450.76503784 708.52576538 -450.76503784 708.52576538 -449.50512695 708.10571289 C-438.17722327 704.5539254 -427.08103694 703.63410881 -415.25 703.6875 C-414.58914398 703.68998749 -413.92828796 703.69247498 -413.24740601 703.69503784 C-391.34706089 703.82241352 -373.01187666 709.2456959 -354.0625 720.0625 C-331.26056123 733.07838032 -303.07272068 737.39593809 -277.36328125 731.01953125 C-266.43763773 727.70757659 -256.79379311 723.44035324 -246.75 718 C-218.4440297 702.73709146 -185.7630298 699.44562035 -154.87060547 708.63330078 C-147.03895882 711.10908773 -139.87819651 714.49697176 -132.6875 718.4375 C-107.57928109 732.19467546 -78.01926349 738.06295031 -50 730 C-39.58979059 726.891606 -30.08053315 722.64860334 -20.5625 717.4375 C-10.7150598 712.06393155 -0.89692127 708.58998564 10 706 C11.07636719 705.73574219 12.15273438 705.47148438 13.26171875 705.19921875 C44.18651313 699.12986658 72.00126979 707.78225088 99.12890625 721.66357422 C107.27274909 725.77300699 115.12321128 728.86430739 124 731 C124.93457031 731.24105469 125.86914062 731.48210937 126.83203125 731.73046875 C133.70001985 733.1944606 140.63097903 733.19841431 147.625 733.25 C148.59123291 733.25942627 149.55746582 733.26885254 150.55297852 733.27856445 C153.37897378 733.26578369 156.17898405 733.16564862 159 733 C160.3317627 732.92749023 160.3317627 732.92749023 161.69042969 732.85351562 C166.78636836 732.24855353 169.45390146 731.09108681 172.69140625 727.04296875 C173.82500348 725.38254905 174.92707797 723.70025721 176 722 C176.56831543 721.15131348 177.13663086 720.30262695 177.72216797 719.42822266 C179.50075278 716.74664102 181.2253075 714.03689901 182.9375 711.3125 C183.54287598 710.3544043 184.14825195 709.39630859 184.77197266 708.40917969 C193.31697205 696.83645635 193.31697205 696.83645635 198 684 C196.60396057 684.41597563 195.20818801 684.83284683 193.8125 685.25 C192.89984375 685.52199219 191.9871875 685.79398438 191.046875 686.07421875 C188.96871763 686.70565887 186.8959027 687.35488842 184.828125 688.01953125 C155.82762062 697.28165406 123.14349218 696.13773287 95.75 682.125 C93.81722719 681.1116068 91.89246454 680.08482413 89.97119141 679.04980469 C63.2376746 664.8122369 34.22084191 659.64412692 4.67578125 668.18359375 C-3.99060624 670.93442729 -11.80188451 674.89813644 -19.76464844 679.24072266 C-48.86283837 694.89121431 -81.79050333 697.88891172 -113.41650391 688.59106445 C-121.05553508 686.17952716 -127.9942329 682.83943902 -135.02880859 679.04980469 C-162.88863246 664.2123954 -192.53630623 659.8539276 -223.125 668.875 C-231.36087182 671.78649198 -238.89011468 676.06960604 -246.57495117 680.18432617 C-274.62400082 695.00289205 -306.72022748 698.01827951 -337.25 689.25390625 C-346.66069466 686.10720522 -355.42958209 682.0286225 -363.9375 676.9375 C-373.9586335 671.03259868 -385.47470944 666.79282298 -397 665 C-398.9490625 664.690625 -398.9490625 664.690625 -400.9375 664.375 C-427.03811525 661.86532546 -449.19827999 667.86956946 -471.98388672 680.06152344 C-499.82058839 694.89587123 -532.23350318 698.49012862 -562.65942383 689.23730469 C-572.57896179 685.99195963 -582.22619363 681.5312102 -591 675.875 C-599.98733283 670.23286653 -611.54057293 666.62702199 -622 665 C-623.299375 664.79375 -624.59875 664.5875 -625.9375 664.375 C-639.55756528 663.06537834 -653.74135861 663.44514687 -667 667 Z M-640 714 C-638.37514983 718.95192433 -635.51128826 722.81444553 -632.5 727 C-631.96608643 727.74822021 -631.43217285 728.49644043 -630.88208008 729.26733398 C-626.76913229 735.00029329 -622.59601792 740.68319996 -618.1953125 746.19921875 C-616 749 -616 749 -614.4921875 751.33203125 C-610.26067072 757.37870687 -604.5377594 758.90943697 -597.80908203 761.14379883 C-591.40743852 763.31806828 -585.77198311 766.16503298 -579.9375 769.5625 C-573.59824385 773.20859195 -567.39282374 776.27313475 -560.4375 778.5625 C-559.74841553 778.78945557 -559.05933105 779.01641113 -558.34936523 779.25024414 C-548.21985871 782.3706508 -538.32355075 783.36495932 -527.75 783.3125 C-526.55850342 783.30686035 -525.36700684 783.3012207 -524.1394043 783.29541016 C-505.39058552 783.03719366 -489.44494649 777.83783181 -473.3125 768.5625 C-466.40352738 764.60638868 -459.56228968 761.4441515 -452 758.9375 C-450.76503784 758.52576538 -450.76503784 758.52576538 -449.50512695 758.10571289 C-438.17722327 754.5539254 -427.08103694 753.63410881 -415.25 753.6875 C-414.58914398 753.68998749 -413.92828796 753.69247498 -413.24740601 753.69503784 C-391.34706089 753.82241352 -373.01187666 759.2456959 -354.0625 770.0625 C-331.26056123 783.07838032 -303.07272068 787.39593809 -277.36328125 781.01953125 C-266.43763773 777.70757659 -256.79379311 773.44035324 -246.75 768 C-218.4440297 752.73709146 -185.7630298 749.44562035 -154.87060547 758.63330078 C-147.03895882 761.10908773 -139.87819651 764.49697176 -132.6875 768.4375 C-107.57928109 782.19467546 -78.01926349 788.06295031 -50 780 C-39.58979059 776.891606 -30.08053315 772.64860334 -20.5625 767.4375 C-10.7150598 762.06393155 -0.89692127 758.58998564 10 756 C11.07636719 755.73574219 12.15273438 755.47148438 13.26171875 755.19921875 C44.16298789 749.13448369 72.01098851 757.76044283 99.11352539 771.65917969 C113.40685925 779.25251907 113.40685925 779.25251907 129 781 C131.4882812 778.97525921 131.4882812 778.97525921 133.75 776.1875 C134.39787476 775.43980347 134.39787476 775.43980347 135.05883789 774.67700195 C136.3891625 773.13123819 137.69667933 771.5685631 139 770 C140.11955078 768.6696875 140.11955078 768.6696875 141.26171875 767.3125 C143.53883867 764.56523862 145.77535109 761.78992855 148 759 C148.72364746 758.09386963 148.72364746 758.09386963 149.46191406 757.16943359 C150.9993809 755.2410442 152.53197572 753.308903 154.0625 751.375 C154.55226318 750.75842529 155.04202637 750.14185059 155.54663086 749.5065918 C157.92779038 747.02073089 157.92779038 747.02073089 159 744 C158.22140625 744.02320313 157.4428125 744.04640625 156.640625 744.0703125 C132.81987696 744.45451811 111.04686756 740.40411134 89.97558594 729.04980469 C61.9478074 714.15615075 32.33111672 709.75116966 1.625 719 C-5.67547746 721.59100009 -12.34605281 725.22928887 -19.15161133 728.90234375 C-26.89100531 733.04691417 -34.64983668 736.31174456 -43 739 C-43.97324219 739.31453125 -44.94648437 739.6290625 -45.94921875 739.953125 C-77.044889 748.80042867 -108.87138264 742.60852131 -137.02685547 728.01855469 C-164.36291443 713.90743888 -193.38537458 710.10433081 -223.125 718.875 C-231.36087182 721.78649198 -238.89011468 726.06960604 -246.57495117 730.18432617 C-274.62400082 745.00289205 -306.72022748 748.01827951 -337.25 739.25390625 C-346.66069466 736.10720522 -355.42958209 732.0286225 -363.9375 726.9375 C-373.9586335 721.03259868 -385.47470944 716.79282298 -397 715 C-398.9490625 714.690625 -398.9490625 714.690625 -400.9375 714.375 C-426.08931062 711.95655667 -447.92028763 717.30948045 -470 729 C-498.80147489 744.15252803 -531.07615116 748.84209083 -562.65942383 739.23730469 C-572.57896179 735.99195963 -582.22619363 731.5312102 -591 725.875 C-605.34708119 716.86808454 -623.33049099 713.73540462 -640 714 Z M-472.74975586 780.59301758 C-498.85093458 795.12763952 -529.77706504 797.3799461 -558.5625 790.3125 C-568.05190145 787.60847632 -577.32493233 783.77989508 -585.84375 778.78125 C-588.68626266 776.83617037 -588.68626266 776.83617037 -591 777 C-589.36312397 781.17258919 -586.30669032 783.96425073 -583.1796875 787.05078125 C-582.60219757 787.62781296 -582.02470764 788.20484467 -581.42971802 788.79936218 C-580.20648633 790.01957662 -578.98082895 791.23736351 -577.75292969 792.45288086 C-575.89728973 794.2904276 -574.04961463 796.13568538 -572.203125 797.98242188 C-566.30423748 803.86380246 -560.37705927 809.63301655 -554 815 C-552.81133136 816.03120653 -551.6238212 817.06375004 -550.4375 818.09765625 C-548.07453367 820.14484068 -545.69082847 822.16496183 -543.296875 824.17578125 C-541.40984888 825.76460676 -539.67616127 827.33310892 -537.953125 829.10546875 C-533.64810666 833.26237866 -529.24286153 833.52998709 -523.4375 833.5625 C-505.1190617 833.12375747 -489.01876405 827.59279869 -473.3125 818.5625 C-466.40352738 814.60638868 -459.56228968 811.4441515 -452 808.9375 C-450.76503784 808.52576538 -450.76503784 808.52576538 -449.50512695 808.10571289 C-438.17722327 804.5539254 -427.08103694 803.63410881 -415.25 803.6875 C-414.58914398 803.68998749 -413.92828796 803.69247498 -413.24740601 803.69503784 C-390.58333077 803.82685549 -371.95680911 809.79052891 -352.4309082 821.00170898 C-346.91620927 824.10814813 -341.45064751 826.58325483 -335.4375 828.5625 C-334.74841553 828.78945557 -334.05933105 829.01641113 -333.34936523 829.25024414 C-323.21985871 832.3706508 -313.32355075 833.36495932 -302.75 833.3125 C-301.55850342 833.30686035 -300.36700684 833.3012207 -299.1394043 833.29541016 C-279.66495019 833.02719991 -263.67523789 827.16777872 -246.75 818 C-218.4440297 802.73709146 -185.7630298 799.44562035 -154.87060547 808.63330078 C-147.03895882 811.10908773 -139.87819651 814.49697176 -132.6875 818.4375 C-107.57928109 832.19467546 -78.01926349 838.06295031 -50 830 C-39.58979059 826.891606 -30.08053315 822.64860334 -20.5625 817.4375 C-10.7150598 812.06393155 -0.89692127 808.58998564 10 806 C11.07636719 805.73574219 12.15273438 805.47148438 13.26171875 805.19921875 C40.52094424 799.8492773 66.13380231 806.27028346 91 817 C100.28216355 808.93644451 109.39573509 800.79131415 118 792 C117.12793158 789.67964542 117.12793158 789.67964542 114.18359375 788.9921875 C112.94738281 788.62351562 111.71117187 788.25484375 110.4375 787.875 C104.69173199 786.07080672 99.35520099 783.87797487 94 781.125 C93.33621338 780.7842041 92.67242676 780.4434082 91.98852539 780.09228516 C90.65082202 779.40241265 89.31382134 778.71117584 87.97753906 778.01855469 C60.45758536 763.84407977 31.50542482 759.99987204 1.625 769 C-5.67547746 771.59100009 -12.34605281 775.22928887 -19.15161133 778.90234375 C-26.89100531 783.04691417 -34.64983668 786.31174456 -43 789 C-43.97324219 789.31453125 -44.94648437 789.6290625 -45.94921875 789.953125 C-77.044889 798.80042867 -108.87138264 792.60852131 -137.02685547 778.01855469 C-164.36291443 763.90743888 -193.38537458 760.10433081 -223.125 768.875 C-231.36087182 771.78649198 -238.89011468 776.06960604 -246.57495117 780.18432617 C-274.62400082 795.00289205 -306.72022748 798.01827951 -337.25 789.25390625 C-346.66069466 786.10720522 -355.42958209 782.0286225 -363.9375 776.9375 C-398.58339636 756.52258395 -439.07474979 761.51762782 -472.74975586 780.59301758 Z M-472.06591797 830.08203125 C-486.34417606 837.54512648 -500.1155349 841.48892288 -516 844 C-511.73452392 848.71125329 -506.84678789 851.92032798 -501.5 855.3125 C-500.61231934 855.878479 -499.72463867 856.44445801 -498.81005859 857.02758789 C-497.03205296 858.15967616 -495.25261877 859.28952429 -493.47167969 860.41699219 C-491.2935791 861.81197483 -489.14621491 863.24057936 -487.0078125 864.6953125 C-485.88030999 865.44286168 -484.75271438 866.19027048 -483.625 866.9375 C-482.66851562 867.58589844 -481.71203125 868.23429688 -480.7265625 868.90234375 C-478.01405743 870.28536336 -478.01405743 870.28536336 -475.046875 869.3984375 C-471.84253719 867.92772861 -468.73310917 866.35229482 -465.625 864.6875 C-449.69165636 856.4718026 -433.08508657 853.60701369 -415.25 853.6875 C-414.58914398 853.68998749 -413.92828796 853.69247498 -413.24740601 853.69503784 C-390.58333077 853.82685549 -371.95680911 859.79052891 -352.4309082 871.00170898 C-346.91620927 874.10814813 -341.45064751 876.58325483 -335.4375 878.5625 C-334.74841553 878.78945557 -334.05933105 879.01641113 -333.34936523 879.25024414 C-323.21985871 882.3706508 -313.32355075 883.36495932 -302.75 883.3125 C-301.55850342 883.30686035 -300.36700684 883.3012207 -299.1394043 883.29541016 C-279.66495019 883.02719991 -263.67523789 877.16777872 -246.75 868 C-218.4440297 852.73709146 -185.7630298 849.44562035 -154.87060547 858.63330078 C-147.03895882 861.10908773 -139.87819651 864.49697176 -132.6875 868.4375 C-107.57928109 882.19467546 -78.01926349 888.06295031 -50 880 C-39.58979059 876.891606 -30.08053315 872.64860334 -20.5625 867.4375 C-5.86637671 859.41809365 11.12166694 853.60170815 28.05078125 854.125 C42.39471844 854.3962354 50.14433462 851.11628045 60.94238281 841.76318359 C62.94370894 840.04823612 64.99083076 838.43044884 67.0859375 836.83203125 C71.95937169 833.1132826 76.75053012 829.44449386 81 825 C57.6690677 811.88307032 30.60276829 811.74886556 5.19140625 817.92578125 C-3.51129981 820.54707826 -11.18138235 824.60069997 -19.15161133 828.90234375 C-26.89100531 833.04691417 -34.64983668 836.31174456 -43 839 C-43.97324219 839.31453125 -44.94648437 839.6290625 -45.94921875 839.953125 C-77.044889 848.80042867 -108.87138264 842.60852131 -137.02685547 828.01855469 C-164.36291443 813.90743888 -193.38537458 810.10433081 -223.125 818.875 C-231.36164683 821.78676596 -238.89048536 826.07139809 -246.57714844 830.18432617 C-258.72480821 836.5986503 -271.27682611 841.34634681 -285 843 C-285.87527344 843.10957031 -286.75054688 843.21914063 -287.65234375 843.33203125 C-314.63226695 846.23517937 -340.649942 840.87273207 -363.9375 826.9375 C-398.87440146 806.49822432 -437.70475914 812.08526265 -472.06591797 830.08203125 Z M-464 876 C-464 876.66 -464 877.32 -464 878 C-431.53593587 895.71349435 -431.53593587 895.71349435 -396.19042969 904.91479492 C-382.96189231 906.38581395 -370.55552099 910.54741538 -359.25 917.5625 C-349.03160423 923.79891959 -337.62672815 925.76237317 -326 928 C-324.72995117 928.2479834 -323.45990234 928.4959668 -322.15136719 928.75146484 C-318.19032398 929.51625008 -314.22207945 930.23216365 -310.25 930.9375 C-309.02587402 931.16147461 -307.80174805 931.38544922 -306.54052734 931.61621094 C-284.55942151 935.28421635 -264.81716585 928.19821664 -245.84204102 917.60058594 C-219.77641702 903.10920623 -188.0237183 899.66865481 -159.22705078 907.36279297 C-148.79182536 910.34853495 -139.3144402 914.55272622 -129.93286133 920.01635742 C-122.14025863 924.42228145 -116.22239823 924.43641576 -107.72998047 922.15893555 C-106.68471191 921.85898682 -105.63944336 921.55903809 -104.5625 921.25 C-103.44504395 920.93780518 -102.32758789 920.62561035 -101.17626953 920.30395508 C-64.27730597 909.77617066 -29.62336959 895.30388266 4.4375 877.625 C5.354104 877.14949707 6.27070801 876.67399414 7.21508789 876.18408203 C13.25421878 873.01213664 19.32183755 869.79053028 25 866 C25 865.67 25 865.34 25 865 C7.11065867 865.74383956 -8.0966677 872.51363306 -23.58203125 880.9296875 C-50.7918138 895.45448246 -82.2983681 897.12279156 -111.70703125 888.97265625 C-120.65762641 886.18906802 -128.73041278 882.31771254 -137.02685547 878.01855469 C-164.36291443 863.90743888 -193.38537458 860.10433081 -223.125 868.875 C-231.36164683 871.78676596 -238.89048536 876.07139809 -246.57714844 880.18432617 C-258.72353562 886.59797833 -271.27754626 891.34901728 -285 893 C-286.3303125 893.16435547 -286.3303125 893.16435547 -287.6875 893.33203125 C-314.66591568 896.20615224 -340.65406344 890.87026581 -363.9375 876.9375 C-394.31850293 859.16357992 -433.24369319 859.39703792 -464 876 Z M-256 935 C-256 935.33 -256 935.66 -256 936 C-251.45061739 937.13805516 -246.96771056 937.16093632 -242.30859375 937.16796875 C-241.45944901 937.17220352 -240.61030426 937.17643829 -239.73542786 937.18080139 C-236.969402 937.19071794 -234.20354059 937.19071314 -231.4375 937.1875 C-230.01733582 937.18659363 -230.01733582 937.18659363 -228.56848145 937.18566895 C-198.3607083 937.13331579 -168.76192462 934.12384783 -139 929 C-139 928.34 -139 927.68 -139 927 C-180.56507772 906.27567554 -216.83581358 913.78858367 -256 935 Z " fill="#0000fb" transform="translate(830,153)"/>
<path d="M0 0 C2.32745559 0.00564272 4.65490389 0.00846159 6.98236465 0.0110817 C29.07785641 0.04724655 50.91345958 0.45194589 72.8550148 3.31805801 C74.24579523 3.48742938 75.63675244 3.6553542 77.02786636 3.82196426 C146.27810473 12.18458115 212.56249492 33.14085076 274.8550148 64.31805801 C276.4630397 65.11614883 276.4630397 65.11614883 278.10354996 65.9303627 C302.12092468 77.89618186 324.98453065 91.77479198 346.8550148 107.31805801 C347.6092775 107.84850723 348.36354019 108.37895645 349.14065933 108.92547989 C359.48634098 116.20569346 369.42523722 123.86193208 379.16702652 131.92987442 C381.3913242 133.75911316 383.65321418 135.53869821 385.9175148 137.31805801 C402.51788968 150.59281522 417.87271453 165.26582848 432.9175148 180.25555801 C433.79810562 181.13147598 434.67869644 182.00739395 435.58597183 182.90985489 C440.55002945 187.88624911 445.27901332 192.98504459 449.8550148 198.31805801 C451.30946997 199.92574174 452.76722375 201.53045516 454.2300148 203.13055801 C458.07307778 207.39415819 461.74824214 211.76358074 465.3550148 216.22821426 C467.17505052 218.47766467 469.00720362 220.71279593 470.8550148 222.93915176 C488.99410974 244.87255045 505.60491822 268.72854581 519.76810074 293.4357338 C520.97848412 295.53188291 522.21737088 297.6099193 523.4565773 299.68915176 C563.24886734 367.11098614 588.24509063 443.16307998 598.6050148 520.63055801 C598.70615585 521.37638138 598.80729691 522.12220474 598.91150284 522.89062881 C602.23766447 547.70936052 603.23466337 572.45302527 603.17307281 597.46304321 C603.16743009 599.7904988 603.16461122 602.1179471 603.16199112 604.44540787 C603.12582627 626.54089963 602.72112692 648.3765028 599.8550148 670.31805801 C599.68564343 671.70883844 599.51771861 673.09979566 599.35110855 674.49090958 C590.98849166 743.74114794 570.03222206 810.02553813 538.8550148 872.31805801 C538.32295425 873.39007462 537.79089371 874.46209122 537.24271011 875.56659317 C525.27689095 899.58396789 511.39828083 922.44757387 495.8550148 944.31805801 C495.32456558 945.07232071 494.79411636 945.8265834 494.24759293 946.60370255 C486.96737935 956.9493842 479.31114074 966.88828043 471.24319839 976.63006973 C469.41395966 978.85436742 467.6343746 981.11625739 465.8550148 983.38055801 C452.58025759 999.9809329 437.90724433 1015.33575775 422.9175148 1030.38055801 C422.04159683 1031.26114883 421.16567886 1032.14173965 420.26321793 1033.04901505 C415.28682371 1038.01307266 410.18802823 1042.74205653 404.8550148 1047.31805801 C403.24733108 1048.77251318 401.64261766 1050.23026696 400.0425148 1051.69305801 C395.77891463 1055.53612099 391.40949207 1059.21128535 386.94485855 1062.81805801 C384.69540815 1064.63809374 382.46027688 1066.47024683 380.23392105 1068.31805801 C358.30052237 1086.45715296 334.44452701 1103.06796143 309.73733902 1117.23114395 C307.6411899 1118.44152733 305.56315352 1119.68041409 303.48392105 1120.91962051 C236.06208667 1160.71191055 160.00999283 1185.70813384 82.5425148 1196.06805801 C81.79669144 1196.16919907 81.05086807 1196.27034012 80.282444 1196.37454605 C55.4637123 1199.70070769 30.72004754 1200.69770658 5.7100296 1200.63611603 C3.38257401 1200.6304733 1.05512572 1200.62765443 -1.27233505 1200.62503433 C-23.36782681 1200.58886948 -45.20342998 1200.18417014 -67.1449852 1197.31805801 C-68.53576562 1197.14868664 -69.92672284 1196.98076183 -71.31783676 1196.81415176 C-140.56807512 1188.45153487 -206.85246532 1167.49526527 -269.1449852 1136.31805801 C-270.2170018 1135.78599747 -271.2890184 1135.25393692 -272.39352036 1134.70575333 C-296.41089508 1122.73993417 -319.27450105 1108.86132404 -341.1449852 1093.31805801 C-341.89924789 1092.7876088 -342.65351059 1092.25715958 -343.43062973 1091.71063614 C-353.77631138 1084.43042257 -363.71520762 1076.77418395 -373.45699692 1068.70624161 C-375.6812946 1066.87700287 -377.94318457 1065.09741781 -380.2074852 1063.31805801 C-396.80786008 1050.0433008 -412.16268493 1035.37028755 -427.2074852 1020.38055801 C-428.08807602 1019.50464005 -428.96866684 1018.62872208 -429.87594223 1017.72626114 C-434.83999985 1012.74986692 -439.56898372 1007.65107144 -444.1449852 1002.31805801 C-445.59944037 1000.71037429 -447.05719415 999.10566087 -448.5199852 997.50555801 C-452.36304818 993.24195784 -456.03821254 988.87253528 -459.6449852 984.40790176 C-461.46502092 982.15845136 -463.29717402 979.9233201 -465.1449852 977.69696426 C-483.28408014 955.76356558 -499.89488862 931.90757022 -514.05807114 907.20038223 C-515.26845452 905.10423312 -516.50734128 903.02619673 -517.7465477 900.94696426 C-557.53883773 833.52512988 -582.53506103 757.47303605 -592.8949852 680.00555801 C-593.04669678 678.88682297 -593.04669678 678.88682297 -593.20147324 677.74548721 C-596.52763487 652.92675551 -597.52463377 628.18309076 -597.46304321 603.17307281 C-597.45740049 600.84561723 -597.45458162 598.51816893 -597.45196152 596.19070816 C-597.41579667 574.0952164 -597.01109732 552.25961323 -594.1449852 530.31805801 C-593.97561383 528.92727759 -593.80768901 527.53632037 -593.64107895 526.14520645 C-585.27846206 456.89496809 -564.32219245 390.6105779 -533.1449852 328.31805801 C-532.34689438 326.71003311 -532.34689438 326.71003311 -531.53268051 325.06952286 C-519.56686135 301.05214814 -505.68825123 278.18854216 -490.1449852 256.31805801 C-489.34931137 255.18666397 -489.34931137 255.18666397 -488.53756332 254.03241348 C-481.25734975 243.68673183 -473.60111113 233.74783559 -465.53316879 224.0060463 C-463.70393006 221.78174861 -461.924345 219.51985864 -460.1449852 217.25555801 C-446.87022799 200.65518313 -432.19721473 185.30035828 -417.2074852 170.25555801 C-416.33156723 169.37496719 -415.45564926 168.49437637 -414.55318832 167.58710098 C-409.57679411 162.62304337 -404.47799863 157.8940595 -399.1449852 153.31805801 C-397.53730147 151.86360284 -395.93258805 150.40584907 -394.3324852 148.94305801 C-390.06888502 145.09999503 -385.69946247 141.42483067 -381.23482895 137.81805801 C-378.98537855 135.99802229 -376.75024728 134.16586919 -374.52389145 132.31805801 C-352.59049276 114.17896307 -328.73449741 97.5681546 -304.02730942 83.40497208 C-301.9311603 82.1945887 -299.85312391 80.95570193 -297.77389145 79.71649551 C-230.35205707 39.92420548 -154.29996323 14.92798218 -76.8324852 4.56805801 C-75.71375015 4.41634644 -75.71375015 4.41634644 -74.5724144 4.26156998 C-49.75368269 0.93540834 -25.01001794 -0.06159056 0 0 Z M-63.1449852 17.31805801 C-64.22284286 17.44534286 -64.22284286 17.44534286 -65.32247543 17.57519913 C-123.06692471 24.45235163 -180.11810215 39.28114674 -233.1449852 63.31805801 C-234.21168442 63.79452774 -235.27838364 64.27099747 -236.37740707 64.76190567 C-278.02771671 83.38428188 -316.84643481 106.66161378 -353.1449852 134.31805801 C-353.78613266 134.8061293 -354.42728012 135.29420059 -355.08785629 135.79706192 C-366.71625232 144.69405851 -377.82513276 154.20373651 -388.65060043 164.05902481 C-390.19067072 165.45378554 -391.73819694 166.84042344 -393.29757309 168.21356583 C-400.28734582 174.39075008 -406.89500436 180.91502802 -413.47774887 187.52045059 C-415.33640628 189.38449045 -417.20038134 191.24309313 -419.06490707 193.10126114 C-424.9718949 199.00460383 -430.75854612 204.9293652 -436.1449852 211.31805801 C-437.18952525 212.51021206 -438.23640911 213.70031653 -439.2856102 214.88837051 C-445.98803194 222.53322048 -452.47489128 230.29476093 -458.65230942 238.37030411 C-459.68311329 239.71537335 -460.7189195 241.05661855 -461.75875473 242.39471817 C-478.90517747 264.47805185 -494.4781183 287.92795708 -508.1449852 312.31805801 C-508.69815414 313.30096817 -509.25132309 314.28387833 -509.82125473 315.29657364 C-546.57869367 381.00657712 -570.1539311 453.47983896 -579.3949852 528.19305801 C-579.54628891 529.41371964 -579.69759262 530.63438126 -579.85348129 531.89203262 C-582.46730587 554.45805149 -583.52650029 576.983311 -583.4574852 599.69305801 C-583.45566238 600.95087082 -583.45383957 602.20868362 -583.45196152 603.50461197 C-583.40085185 624.57561484 -582.65027423 645.39415455 -580.1449852 666.31805801 C-580.01770035 667.39591568 -580.01770035 667.39591568 -579.88784409 668.49554825 C-573.01069158 726.23999753 -558.18189647 783.29117496 -534.1449852 836.31805801 C-533.66851547 837.38475723 -533.19204575 838.45145645 -532.70113754 839.55047989 C-514.07876133 881.20078952 -490.80142944 920.01950763 -463.1449852 956.31805801 C-462.65691391 956.95920547 -462.16884262 957.60035294 -461.66598129 958.26092911 C-452.7689847 969.88932514 -443.2593067 980.99820558 -433.4040184 991.82367325 C-432.00925767 993.36374354 -430.62261977 994.91126975 -429.24947739 996.4706459 C-423.07229314 1003.46041864 -416.5480152 1010.06807718 -409.94259262 1016.65082169 C-408.07855276 1018.5094791 -406.21995008 1020.37345415 -404.36178207 1022.23797989 C-398.45843938 1028.14496772 -392.53367802 1033.93161893 -386.1449852 1039.31805801 C-384.95283115 1040.36259807 -383.76272668 1041.40948192 -382.5746727 1042.45868301 C-374.92982273 1049.16110476 -367.16828228 1055.64796409 -359.09273911 1061.82538223 C-357.74766987 1062.85618611 -356.40642466 1063.89199231 -355.06832504 1064.93182755 C-332.98499136 1082.07825029 -309.53508613 1097.65119111 -285.1449852 1111.31805801 C-284.16207504 1111.87122696 -283.17916489 1112.4243959 -282.16646957 1112.99432755 C-216.45646609 1149.75176648 -143.98320426 1173.32700392 -69.2699852 1182.56805801 C-67.43899277 1182.79501358 -67.43899277 1182.79501358 -65.57101059 1183.02655411 C-43.00499172 1185.64037869 -20.47973221 1186.69957311 2.2300148 1186.63055801 C3.48782761 1186.6287352 4.74564041 1186.62691238 6.04156876 1186.62503433 C27.11257162 1186.57392466 47.93111134 1185.82334704 68.8550148 1183.31805801 C69.93287247 1183.19077316 69.93287247 1183.19077316 71.03250504 1183.0609169 C128.77695432 1176.1837644 185.82813175 1161.35496929 238.8550148 1137.31805801 C240.45506363 1136.60335342 240.45506363 1136.60335342 242.08743668 1135.87421036 C283.73774631 1117.25183414 322.55646441 1093.97450225 358.8550148 1066.31805801 C359.49616226 1065.82998672 360.13730972 1065.34191544 360.79788589 1064.83905411 C372.42628193 1055.94205751 383.53516236 1046.43237951 394.36063004 1036.57709122 C395.90070032 1035.18233049 397.44822654 1033.79569259 399.00760269 1032.4225502 C405.99737542 1026.24536595 412.60503396 1019.72108801 419.18777847 1013.11566544 C421.04643588 1011.25162558 422.91041094 1009.3930229 424.77493668 1007.53485489 C430.6819245 1001.63151219 436.46857572 995.70675083 441.8550148 989.31805801 C442.89955486 988.12590397 443.94643871 986.9357995 444.9956398 985.74774551 C451.69806155 978.10289555 458.18492088 970.3413551 464.36233902 962.26581192 C465.3931429 960.92074268 466.4289491 959.57949747 467.46878433 958.24139786 C484.61520707 936.15806418 500.1881479 912.70815894 513.8550148 888.31805801 C514.40818375 887.33514786 514.96135269 886.3522377 515.53128433 885.33954239 C552.28872327 819.6295389 575.86396071 747.15627707 585.1050148 672.44305801 C585.33197037 670.61206558 585.33197037 670.61206558 585.56351089 668.7440834 C588.17733547 646.17806453 589.23652989 623.65280503 589.1675148 600.94305801 C589.16569199 599.68524521 589.16386917 598.4274324 589.16199112 597.13150406 C589.11088145 576.06050119 588.36030383 555.24196148 585.8550148 534.31805801 C585.72772995 533.24020035 585.72772995 533.24020035 585.59787369 532.14056778 C578.72072119 474.3961185 563.89192608 417.34494107 539.8550148 364.31805801 C539.37854507 363.2513588 538.90207535 362.18465958 538.41116714 361.08563614 C519.78879093 319.43532651 496.51145904 280.6166084 468.8550148 244.31805801 C468.36694351 243.67691055 467.87887222 243.03576309 467.37601089 242.37518692 C458.4790143 230.74679089 448.9693363 219.63791045 439.114048 208.81244278 C437.71928727 207.27237249 436.33264938 205.72484627 434.95950699 204.16547012 C428.78232274 197.17569739 422.2580448 190.56803885 415.65262222 183.98529434 C413.78858236 182.12663693 411.92997968 180.26266187 410.07181168 178.39813614 C404.16846898 172.49114831 398.24370762 166.70449709 391.8550148 161.31805801 C390.66286076 160.27351796 389.47275628 159.2266341 388.2847023 158.17743301 C380.63985233 151.47501127 372.87831188 144.98815193 364.80276871 138.8107338 C363.45769947 137.77992992 362.11645426 136.74412371 360.77835464 135.70428848 C338.69502097 118.55786574 315.24511573 102.98492491 290.8550148 89.31805801 C289.87210464 88.76488907 288.88919449 88.21172012 287.87649918 87.64178848 C222.16649569 50.88434955 149.69323386 27.30911211 74.9800148 18.06805801 C73.75935318 17.9167543 72.53869156 17.76545059 71.28104019 17.60956192 C48.71502132 14.99573734 26.18976181 13.93654292 3.4800148 14.00555801 C1.59329559 14.00829224 1.59329559 14.00829224 -0.33153915 14.0110817 C-21.40254202 14.06219137 -42.22108174 14.81276898 -63.1449852 17.31805801 Z " fill="#0000fb" transform="translate(597.1449851989746,-0.3180580139160156)"/>
<path d="M0 0 C1.84430099 -0.01925285 1.84430099 -0.01925285 3.7258606 -0.03889465 C5.07879225 -0.04707228 6.43172852 -0.05451404 7.78466797 -0.0612793 C8.46894741 -0.06535482 9.15322685 -0.06943035 9.85824203 -0.07362938 C13.49468432 -0.09452401 17.13108874 -0.10879925 20.76757812 -0.11816406 C23.74891049 -0.12695213 26.72976577 -0.14764695 29.7109375 -0.1796875 C61.77203685 -0.51669488 61.77203685 -0.51669488 74.15185547 4.17700195 C74.98700684 4.49048584 75.8221582 4.80396973 76.68261719 5.12695312 C78.70003631 5.96848574 80.60275891 6.89228427 82.52685547 7.92700195 C83.18693604 8.27061768 83.8470166 8.6142334 84.52709961 8.96826172 C90.29445186 12.066053 95.32944577 15.74240842 100.15185547 20.17700195 C100.93044922 20.87567383 101.70904297 21.5743457 102.51123047 22.29418945 C116.65738557 35.63334912 125.07261718 54.81612121 126.15185547 74.17700195 C126.23113281 75.47637695 126.23113281 75.47637695 126.31201172 76.80200195 C126.95620694 97.41624905 120.0747175 116.45366816 106.66357422 132.07543945 C96.10421138 143.01250889 96.10421138 143.01250889 90.15185547 145.17700195 C86.84194768 144.02870876 83.73154652 142.52716727 80.59716797 140.9699707 C70.26662024 135.90153052 60.17851741 131.4808707 49.15185547 128.17700195 C47.14980108 127.5165304 45.1491277 126.85179679 43.15185547 126.17700195 C43.15185547 125.84700195 43.15185547 125.51700195 43.15185547 125.17700195 C44.09544922 125.03004883 45.03904297 124.8830957 46.01123047 124.73168945 C59.64740008 122.34946705 71.30135403 117.92696811 79.77685547 106.48950195 C88.09436863 94.16044483 90.18619232 80.04617315 87.46826172 65.5246582 C83.85214821 52.90577246 77.59151357 43.24079682 66.22216797 36.41918945 C51.81832788 28.83243399 39.12007293 29.8296257 22.15185547 29.17700195 C22.15185547 60.52700195 22.15185547 91.87700195 22.15185547 124.17700195 C9.77685547 125.16700195 9.77685547 125.16700195 -2.84814453 126.17700195 C-7.79814453 126.67200195 -7.79814453 126.67200195 -12.84814453 127.17700195 C-12.96386798 111.33931583 -13.05310612 95.50177916 -13.10720539 79.6637764 C-13.13299187 72.30996563 -13.16815033 64.95642231 -13.2253418 57.6027832 C-13.27516384 51.19364582 -13.30743233 44.78470211 -13.31858701 38.37537646 C-13.32510802 34.98128203 -13.34044184 31.58774167 -13.37679482 28.19382477 C-13.41295987 24.40565292 -13.41809482 20.61863826 -13.41577148 16.83032227 C-13.43374786 15.70391327 -13.45172424 14.57750427 -13.47024536 13.41696167 C-13.41957589 5.80896836 -13.41957589 5.80896836 -10.43766785 2.51116943 C-6.53797403 0.50197931 -4.42993379 0.04022051 0 0 Z " fill="#0000fb" transform="translate(845.84814453125,462.822998046875)"/>
<path d="M0 0 C1.23621094 -0.02384766 2.47242188 -0.04769531 3.74609375 -0.07226562 C4.93332031 -0.07033203 6.12054688 -0.06839844 7.34375 -0.06640625 C8.42849609 -0.06713135 9.51324219 -0.06785645 10.63085938 -0.06860352 C13.5 0.5625 13.5 0.5625 15.65093994 2.41241455 C18.3908977 7.0802462 18.02709796 11.27543464 17.95410156 16.5949707 C17.95468567 17.70760788 17.95526978 18.82024506 17.95587158 19.96659851 C17.95308696 23.64081112 17.92197542 27.31421051 17.890625 30.98828125 C17.883164 33.53703874 17.8774704 36.08580198 17.87347412 38.63456726 C17.85976694 44.65527791 17.82824831 50.67563999 17.78807616 56.69621104 C17.74332496 63.55226171 17.72136306 70.40832649 17.70129442 77.26448691 C17.65951435 91.36398581 17.58918334 105.46322694 17.5 119.5625 C18.20299728 119.55361755 18.90599457 119.54473511 19.6302948 119.5355835 C26.26563998 119.45533005 32.9008491 119.39448138 39.53657055 119.35525131 C42.94784999 119.33440424 46.35872734 119.30614103 49.76977539 119.26074219 C53.69412369 119.20884041 57.61831096 119.18953078 61.54296875 119.171875 C62.76396774 119.15122986 63.98496674 119.13058472 65.2429657 119.10931396 C66.3837709 119.10901184 67.52457611 119.10870972 68.69995117 119.10839844 C69.70144699 119.09951599 70.70294281 119.09063354 71.73478699 119.08148193 C75.27859892 119.69793989 76.9592917 121.06304021 79.5 123.5625 C80.06762695 126.21972656 80.06762695 126.21972656 79.98828125 129.203125 C79.97216797 130.27304687 79.95605469 131.34296875 79.93945312 132.4453125 C79.89755859 133.55648437 79.85566406 134.66765625 79.8125 135.8125 C79.78994141 136.93914062 79.76738281 138.06578125 79.74414062 139.2265625 C79.68524254 142.00655232 79.60304201 144.78385332 79.5 147.5625 C54.25795248 157.93961318 26.22800735 157.59466723 0.94775391 147.1262207 C-2.92724771 145.3687228 -6.65411258 143.41468569 -10.39453125 141.390625 C-11.08148071 141.02146973 -11.76843018 140.65231445 -12.47619629 140.27197266 C-14.15198763 139.37102524 -15.82616361 138.46707426 -17.5 137.5625 C-17.5934121 120.29057491 -17.66396376 103.01872857 -17.70724869 85.74660873 C-17.72788021 77.72698272 -17.7560119 69.7075136 -17.80175781 61.68798828 C-17.84160774 54.69873681 -17.86742853 47.70959894 -17.87635398 40.72023702 C-17.88157193 37.01884095 -17.89384771 33.31776993 -17.92292023 29.61647797 C-17.9551009 25.48603351 -17.95596061 21.35615531 -17.95410156 17.22558594 C-17.96848267 15.99631882 -17.98286377 14.7670517 -17.99768066 13.50053406 C-17.99218201 12.37595291 -17.98668335 11.25137177 -17.98101807 10.0927124 C-17.98470524 9.11561184 -17.98839241 8.13851128 -17.99219131 7.13180161 C-16.27894629 -1.81155653 -7.06316567 -0.06260366 0 0 Z " fill="#0000fb" transform="translate(264.5,462.4375)"/>
<path d="M0 0 C1.34888732 0.00015905 2.69778075 0.00584927 4.04663086 0.01586914 C5.10991859 0.01799156 5.10991859 0.01799156 6.19468689 0.02015686 C8.46699173 0.02577096 10.73919936 0.03832576 13.01147461 0.05102539 C14.54858257 0.05603858 16.08569206 0.0606018 17.62280273 0.06469727 C21.39823103 0.07574497 25.17358632 0.09301898 28.94897461 0.11352539 C30.96825578 3.47107836 31.19645333 6.02040171 31.18948364 9.90948486 C31.19223297 11.09296509 31.1949823 12.27644531 31.19781494 13.49578857 C31.19062439 14.79051086 31.18343384 16.08523315 31.17602539 17.41918945 C31.17546112 18.79907218 31.17577814 20.17895551 31.1769104 21.55883789 C31.17748431 25.30233592 31.1657238 29.04570583 31.15176249 32.78917408 C31.13926154 36.70227726 31.13808513 40.61538335 31.13571167 44.52850342 C31.12949503 51.9374189 31.11308173 59.34627537 31.09301269 66.75516486 C31.07065941 75.19039717 31.0596617 83.6256323 31.04962182 92.06088686 C31.02871566 109.41180051 30.99353611 126.76265671 30.94897461 144.11352539 C29.07849012 145.08199671 27.20398734 146.04270908 25.32788086 147.00024414 C24.28446533 147.53609131 23.2410498 148.07193848 22.16601562 148.62402344 C15.4319337 151.74192841 8.58933018 153.00095963 1.24414062 153.64746094 C0.25277603 153.73537399 -0.73858856 153.82328705 -1.75999451 153.91386414 C-2.5160347 153.97975235 -3.27207489 154.04564056 -4.05102539 154.11352539 C-4.07435283 134.18207596 -4.0920038 114.25062928 -4.10283756 94.31916904 C-4.10800085 85.06531379 -4.11504417 75.81146701 -4.12646484 66.55761719 C-4.13641068 58.49496341 -4.14287858 50.43231577 -4.14511389 42.36965603 C-4.14642116 38.09784018 -4.14950809 33.82604188 -4.15675545 29.55423164 C-4.16351408 25.53816583 -4.16564267 21.52212488 -4.16413307 17.50605392 C-4.16440947 16.02775754 -4.16641552 14.54946038 -4.17023087 13.0711689 C-4.1751656 11.06153582 -4.17342353 9.05188958 -4.17127991 7.04225159 C-4.1722017 5.91489877 -4.17312349 4.78754595 -4.17407322 3.62603092 C-3.99329215 -0.06532581 -3.75888343 0.13986403 0 0 Z " fill="#0000fb" transform="translate(769.051025390625,462.886474609375)"/>
<path d="M0 0 C0.65926483 0.00187317 1.31852966 0.00374634 1.99777222 0.00567627 C3.38805211 0.01238792 4.77831341 0.02628505 6.16845703 0.046875 C8.30388804 0.0781133 10.43858161 0.08785452 12.57421875 0.09375 C23.01620215 0.16463965 23.01620215 0.16463965 24.1796875 1.328125 C24.28387816 2.74891163 24.31930079 4.17481398 24.32685852 5.59939575 C24.33401382 6.52147827 24.34116913 7.44356079 24.34854126 8.39358521 C24.35123016 9.41370697 24.35391907 10.43382874 24.35668945 11.48486328 C24.36654625 13.08754059 24.36654625 13.08754059 24.37660217 14.72259521 C24.39640994 18.28120996 24.40802093 21.83978215 24.41796875 25.3984375 C24.42204428 26.61444515 24.4261198 27.8304528 24.43031883 29.08330917 C24.45122198 35.53258852 24.46549924 41.98184639 24.47485352 48.43115234 C24.48485698 55.06724216 24.52018634 61.70302359 24.56002522 68.33900642 C24.58630424 73.45918356 24.59455588 78.57928148 24.59813499 83.69952011 C24.60298022 86.14330186 24.61453461 88.58708057 24.63317299 91.03079605 C24.78970904 112.93521933 22.9424468 130.74586238 7.1796875 147.328125 C0.0227355 145.13676959 -6.49536501 142.20949819 -13.1953125 138.890625 C-20.60642352 135.21974715 -27.98546801 131.9930446 -35.8203125 129.328125 C-35.8203125 128.668125 -35.8203125 128.008125 -35.8203125 127.328125 C-35.17964844 127.16957031 -34.53898438 127.01101563 -33.87890625 126.84765625 C-24.1313418 124.21828343 -19.26993961 120.83393711 -14.08203125 112.12109375 C-10.99941216 105.29733941 -10.52776658 98.83967396 -10.54907227 91.47143555 C-10.54123215 90.04313667 -10.54123215 90.04313667 -10.53323364 88.58598328 C-10.52304286 86.53226545 -10.51722189 84.47852215 -10.51535225 82.42477989 C-10.51167491 79.17611591 -10.49491427 75.92775342 -10.47459412 72.67915344 C-10.41928763 63.44786158 -10.38840104 54.21652741 -10.36401367 44.98510742 C-10.34817201 39.32832279 -10.31800034 33.67175683 -10.27924919 28.01508522 C-10.26758111 25.86007818 -10.26166869 23.70503214 -10.26156807 21.54999352 C-10.26137679 18.54570887 -10.24317072 15.54203234 -10.22094727 12.5378418 C-10.22781303 11.19831451 -10.22781303 11.19831451 -10.2348175 9.83172607 C-10.22516968 9.01457626 -10.21552185 8.19742645 -10.20558167 7.35551453 C-10.20357034 6.64598475 -10.20155901 5.93645498 -10.19948673 5.20542431 C-9.08617614 -0.30659897 -4.78725808 -0.03623398 0 0 Z " fill="#0000fb" transform="translate(706.8203125,462.671875)"/>
<path d="M0 0 C1.63388672 -0.04930664 1.63388672 -0.04930664 3.30078125 -0.09960938 C11.31781614 -0.15357962 11.31781614 -0.15357962 15.3203125 2.77734375 C17.7741862 6.39441732 18.24982668 8.97421113 18.24525452 13.24003601 C18.24662918 14.22861603 18.24800385 15.21719604 18.24942017 16.23573303 C18.24402725 17.8606089 18.24402725 17.8606089 18.23852539 19.51831055 C18.23867142 20.65991638 18.23881744 21.80152222 18.2389679 22.97772217 C18.23826993 26.75990687 18.23048291 30.54204263 18.22265625 34.32421875 C18.22079166 36.9430997 18.21936795 39.561981 18.21836853 42.18086243 C18.21525953 48.37502367 18.20705194 54.56916727 18.19701904 60.76332074 C18.18584454 67.81524885 18.18034408 74.8671778 18.17532361 81.91911256 C18.16486898 96.42525081 18.14727786 110.93137516 18.125 125.4375 C13.41310519 126.79433202 8.69218832 128.05240969 3.9375 129.25 C-2.15245662 130.82071624 -7.83173071 132.90799203 -13.58203125 135.484375 C-15.875 136.4375 -15.875 136.4375 -17.875 136.4375 C-17.94511443 119.85201817 -17.99800006 103.26658449 -18.03043652 86.68099022 C-18.04589836 78.97982195 -18.06697475 71.27874584 -18.10131836 63.57763672 C-18.13124171 56.86450692 -18.15057997 50.15144387 -18.15726548 43.43824923 C-18.1611728 39.88440158 -18.17034109 36.33074486 -18.19219017 32.77695847 C-18.21639646 28.80748698 -18.2169681 24.83820144 -18.21557617 20.86865234 C-18.226362 19.69332947 -18.23714783 18.51800659 -18.2482605 17.30706787 C-18.20961299 7.1366851 -18.20961299 7.1366851 -14.875 2.4375 C-10.22629509 -0.66163661 -5.46954228 0.02892237 0 0 Z " fill="#0000fb" transform="translate(377.875,462.5625)"/>
<path d="M0 0 C2.13353116 -0.00972882 4.26610813 -0.04076318 6.39941406 -0.07226562 C7.75097083 -0.07879353 9.1025345 -0.08404484 10.45410156 -0.08789062 C11.68773437 -0.09723633 12.92136719 -0.10658203 14.19238281 -0.11621094 C15.65224609 0.06022949 15.65224609 0.06022949 17.14160156 0.24023438 C19.18712013 3.30851223 19.39156859 3.91413094 19.39315796 7.36805725 C19.3985408 8.2075592 19.40392365 9.04706116 19.4094696 9.91200256 C19.40328362 11.28889503 19.40328362 11.28889503 19.39697266 12.69360352 C19.40059311 13.66308929 19.40421356 14.63257507 19.40794373 15.63143921 C19.4148437 17.73980327 19.41734204 19.84818521 19.41599655 21.95656013 C19.4150322 25.29916076 19.42796503 28.64143898 19.44497681 31.98399353 C19.49126262 41.48889625 19.51583555 50.99376781 19.52246094 60.4987793 C19.52749027 66.31196671 19.55181862 72.12482057 19.58778763 77.93789482 C19.59755841 80.14852325 19.59993252 82.35919775 19.59461594 84.56984138 C19.58750455 87.6739545 19.6049139 90.77708324 19.62744141 93.88110352 C19.61926895 94.78486221 19.6110965 95.68862091 19.60267639 96.61976624 C19.72128732 105.865892 22.6723121 113.60921267 29.14160156 120.24023438 C31.30380773 122.05288488 31.30380773 122.05288488 33.14160156 123.24023438 C32.81160156 123.90023437 32.48160156 124.56023437 32.14160156 125.24023438 C31.56418213 125.22452393 30.9867627 125.20881348 30.3918457 125.19262695 C18.76406556 124.91969599 7.78220838 125.18791571 -3.62011719 127.58398438 C-6.85839844 128.24023438 -6.85839844 128.24023438 -9.85839844 128.24023438 C-10.67059744 126.37403667 -11.45666011 124.49646766 -12.23339844 122.61523438 C-12.67425781 121.57109375 -13.11511719 120.52695312 -13.56933594 119.45117188 C-17.96783979 106.57808605 -17.15423588 92.41520627 -17.12402344 79.01367188 C-17.12537329 76.89091955 -17.12731648 74.76816753 -17.12982178 72.64541626 C-17.13275156 68.22630836 -17.1285407 63.80728195 -17.11914062 59.38818359 C-17.10767711 53.72336634 -17.11436247 48.05873719 -17.12628555 42.39392662 C-17.13350274 38.02396213 -17.13121807 33.65404251 -17.12602997 29.28407669 C-17.1246967 27.19406741 -17.12632988 25.10405404 -17.13098907 23.01404953 C-17.13605957 20.10414498 -17.12833979 17.19454944 -17.1171875 14.28466797 C-17.12123596 13.4233728 -17.12528442 12.56207764 -17.12945557 11.67468262 C-17.12099609 10.48514481 -17.12099609 10.48514481 -17.11236572 9.27157593 C-17.11161167 8.58550955 -17.11085762 7.89944317 -17.11008072 7.1925869 C-16.80748688 4.84530265 -16.09127759 3.25278871 -14.85839844 1.24023438 C-10.54503942 -0.91644513 -4.79117665 0.01326583 0 0 Z " fill="#0000fb" transform="translate(615.8583984375,462.759765625)"/>
</svg>
